07a216d6537502705348fea392d5d73d *tests/data/fate/hevc-bsf-dts2pts-idr-cra.mov
375266 tests/data/fate/hevc-bsf-dts2pts-idr-cra.mov
#extradata 0:      648, 0x30a7fa5c
#tb 0: 1/1200000
#media_type 0: video
#codec_id 0: hevc
#dimensions 0: 832x480
#sar 0: 0/1
0,    -144000,          0,    48000,    31816, 0xa06cb717
0,     -96000,     384000,    48000,    21934, 0x9f0434a1, F=0x0
0,     -48000,     192000,    48000,     6005, 0x2fd372f5, F=0x0
0,          0,      96000,    48000,     3981, 0xc27b5eb8, F=0x0
0,      48000,      48000,    48000,     1771, 0xf9f407cc, F=0x0
0,      96000,     144000,    48000,     1598, 0x47c9afdc, F=0x0
0,     144000,     288000,    48000,     3561, 0x989b9e59, F=0x0
0,     192000,     240000,    48000,     1621, 0x3fc1c5f3, F=0x0
0,     240000,     336000,    48000,     1543, 0x5d2a9a11, F=0x0
0,     288000,     768000,    48000,    20108, 0xed0fb618, F=0x0
0,     336000,     576000,    48000,     5880, 0x31bb1d8c, F=0x0
0,     384000,     480000,    48000,     3978, 0xfded6791, F=0x0
0,     432000,     432000,    48000,     1644, 0xa159d804, F=0x0
0,     480000,     528000,    48000,     1656, 0x8bafe135, F=0x0
0,     528000,     672000,    48000,     3576, 0x6d6395cc, F=0x0
0,     576000,     624000,    48000,     1644, 0x25afd308, F=0x0
0,     624000,     720000,    48000,     1520, 0x5e81969d, F=0x0
0,     672000,    1152000,    48000,    20230, 0x70abe220, F=0x0
0,     720000,     960000,    48000,     5905, 0xce0b2163, F=0x0
0,     768000,     864000,    48000,     3414, 0x264c3886, F=0x0
0,     816000,     816000,    48000,     1522, 0x1f66970a, F=0x0
0,     864000,     912000,    48000,     1548, 0x9df8a077, F=0x0
0,     912000,    1056000,    48000,     3481, 0x136f4cda, F=0x0
0,     960000,    1008000,    48000,     1570, 0x96b5b46f, F=0x0
0,    1008000,    1104000,    48000,     1552, 0x5f90a241, F=0x0
0,    1056000,    1536000,    48000,    34165, 0xd51c2237
0,    1104000,    1344000,    48000,     6053, 0x43cc75d1, F=0x0
0,    1152000,    1248000,    48000,     3616, 0x705b946d, F=0x0
0,    1200000,    1200000,    48000,     1651, 0x99d2dd20, F=0x0
0,    1248000,    1296000,    48000,     1585, 0x138cae59, F=0x0
0,    1296000,    1440000,    48000,     4152, 0x4853ad40, F=0x0
0,    1344000,    1392000,    48000,     1790, 0xdf251cf7, F=0x0
0,    1392000,    1488000,    48000,     1731, 0x1be6ede1, F=0x0
0,    1440000,    1920000,    48000,    20669, 0x94f6cf6e, F=0x0
0,    1488000,    1728000,    48000,     5001, 0xb4092855, F=0x0
0,    1536000,    1632000,    48000,     3120, 0x4de4c3e7, F=0x0
0,    1584000,    1584000,    48000,     1674, 0x7f5edac2, F=0x0
0,    1632000,    1680000,    48000,     1436, 0xebb36623, F=0x0
0,    1680000,    1824000,    48000,     2674, 0x296fd411, F=0x0
0,    1728000,    1776000,    48000,     1420, 0x304d6168, F=0x0
0,    1776000,    1872000,    48000,     1364, 0x48734084, F=0x0
0,    1824000,    2256001,    48000,    19349, 0xda0944f0, F=0x0
0,    1872000,    2112000,    48000,     5550, 0x9c346b7b, F=0x0
0,    1920000,    2016000,    48000,     3180, 0x5368f72b, F=0x0
0,    1968000,    1968000,    48000,     1475, 0x369b7aae, F=0x0
0,    2016000,    2064000,    48000,     1556, 0xc548affb, F=0x0
0,    2064000,    2208000,    48000,     3365, 0x81d511a6, F=0x0
0,    2112000,    2160000,    48000,     1575, 0xba81b0a5, F=0x0
0,    2160000,    2256000,    48000,     1538, 0xf1199439, F=0x0
0,    2208000,    2256011,    48000,    20138, 0x101fb220, F=0x0
0,    2256000,    2256006,        1,     5806, 0xcc500158, F=0x0
0,    2256001,    2256004,        1,     3267, 0xf8f0d6cd, F=0x0
0,    2256002,    2256002,        2,     1557, 0x894faf3e, F=0x0
0,    2256004,    2256005,        1,     1482, 0x6b1884b7, F=0x0
0,    2256005,    2256008,        1,     3513, 0x81227a59, F=0x0
0,    2256006,    2256007,        1,     1576, 0x855eabd8, F=0x0
0,    2256007,    2256010,        1,     1668, 0x030ade2e, F=0x0
0,    2256008,    2256008,        2,    32088, 0xfadbf5f6
0,    2256010,    2256016,        1,     5921, 0x21fb4976, F=0x0
0,    2256011,    2256013,        1,     3436, 0x92085cd6, F=0x0
0,    2256012,    2256012,        1,     1613, 0x1e0cb7c6, F=0x0
0,    2256013,    2256014,        1,     1483, 0x88d18a4e, F=0x0
0,    2256014,    2256018,        2,     3540, 0xc57c8e7b, F=0x0
0,    2256016,    2256017,        1,     1561, 0x9740a363, F=0x0
0,    2256017,    2256019,        1,     1651, 0x18e3d52d, F=0x0
